<svg width="52" height="52" viewBox="0 0 52 52" fill="none" xmlns="http://www.w3.org/2000/svg">
<rect x="17.3108" y="6.64807" width="30" height="30" rx="15" transform="rotate(20.82 17.3108 6.64807)" fill="#87CC51"/>
<rect x="14.4146" y="0.197388" width="40" height="40" rx="20" transform="rotate(20.82 14.4146 0.197388)" fill="#87CC51" fill-opacity="0.3"/>
<path d="M24.1536 34.2206L21.9664 33.3889L22.7214 31.4036C21.4827 30.7785 20.4799 30.0056 19.713 29.085L20.8327 26.1406C21.7856 27.5172 23.0472 28.5041 24.6175 29.1012C25.2456 29.3401 25.7156 29.4546 26.0275 29.4448C26.3436 29.4238 26.5571 29.2675 26.668 28.9758C26.7831 28.673 26.6716 28.3417 26.3334 27.982C26.0063 27.6266 25.5811 27.2594 25.0575 26.8806C24.5383 26.4906 24.0318 26.0669 23.5381 25.6096C23.0444 25.1522 22.6903 24.5811 22.4757 23.8961C22.2724 23.2154 22.3179 22.488 22.6122 21.7141C22.9875 20.7271 23.5812 20.0605 24.3932 19.7146C25.2164 19.3728 26.1584 19.3266 27.219 19.5759L27.9803 17.5738L30.1676 18.4055L29.3998 20.4244C30.5221 21.0181 31.3779 21.6709 31.9674 22.3829L30.8797 25.2431C30.1603 24.0965 29.0672 23.2572 27.6006 22.7252C26.598 22.3568 26.0029 22.4193 25.8153 22.9129C25.7257 23.1484 25.7948 23.4058 26.0224 23.6849C26.25 23.964 26.5613 24.2429 26.9561 24.5214C27.3663 24.7929 27.7932 25.1221 28.2366 25.509C28.6801 25.8959 29.0736 26.2959 29.4172 26.709C29.7763 27.1151 30.01 27.6148 30.1182 28.208C30.2264 28.8012 30.1568 29.4231 29.9094 30.0737C29.1076 32.1823 27.4406 32.9029 24.9086 32.2353L24.1536 34.2206Z" fill="white"/>
</svg>
