<svg width="17" height="21" viewBox="0 0 17 21" fill="none" xmlns="http://www.w3.org/2000/svg">
<path d="M1.54597 3.59111L1.54297 5.71411V16.2181C1.54297 17.0801 1.88538 17.9067 2.49487 18.5162C3.10436 19.1257 3.93102 19.4681 4.79297 19.4681H13.409C13.2537 19.9068 12.9663 20.2866 12.5863 20.5552C12.2063 20.8239 11.7523 20.9681 11.287 20.9681H4.79297C3.53319 20.9681 2.32501 20.4677 1.43421 19.5769C0.543414 18.6861 0.0429688 17.4779 0.0429688 16.2181V5.71411C0.0429688 4.73411 0.669969 3.89911 1.54597 3.59111ZM13.793 0.964111C14.0884 0.964111 14.381 1.02231 14.654 1.13538C14.927 1.24846 15.175 1.41419 15.384 1.62312C15.5929 1.83205 15.7586 2.08009 15.8717 2.35307C15.9848 2.62606 16.043 2.91864 16.043 3.21411V16.2141C16.043 16.5096 15.9848 16.8022 15.8717 17.0751C15.7586 17.3481 15.5929 17.5962 15.384 17.8051C15.175 18.014 14.927 18.1798 14.654 18.2928C14.381 18.4059 14.0884 18.4641 13.793 18.4641H4.79297C4.19623 18.4641 3.62394 18.2271 3.20198 17.8051C2.78002 17.3831 2.54297 16.8108 2.54297 16.2141V3.21411C2.54297 2.61737 2.78002 2.04508 3.20198 1.62312C3.62394 1.20116 4.19623 0.964111 4.79297 0.964111H13.793ZM13.793 2.46411H4.79297C4.59406 2.46411 4.40329 2.54313 4.26264 2.68378C4.12199 2.82443 4.04297 3.0152 4.04297 3.21411V16.2141C4.04297 16.6281 4.37897 16.9641 4.79297 16.9641H13.793C13.9919 16.9641 14.1826 16.8851 14.3233 16.7444C14.464 16.6038 14.543 16.413 14.543 16.2141V3.21411C14.543 3.0152 14.464 2.82443 14.3233 2.68378C14.1826 2.54313 13.9919 2.46411 13.793 2.46411Z" fill="white"/>
</svg>
