<svg width="58" height="51" viewBox="0 0 58 51" fill="none" xmlns="http://www.w3.org/2000/svg">
<path d="M43.661 15.9267C42.6191 15.3337 41.2795 15.3337 40.0887 15.9267L31.7535 20.8197L26.0975 23.9334L17.9112 28.8264C16.8693 29.4194 15.5297 29.4194 14.339 28.8264L7.93872 24.9713C6.89682 24.3782 6.1526 23.192 6.1526 21.8576V14.444C6.1526 13.2579 6.74797 12.0717 7.93872 11.3303L14.339 7.62354C15.3809 7.03046 16.7204 7.03046 17.9112 7.62354L24.3114 11.4786C25.3533 12.0717 26.0975 13.2579 26.0975 14.5923V19.4853L31.7535 16.2233V11.1821C31.7535 9.99589 31.1582 8.80972 29.9674 8.06836L18.06 1.0996C17.0181 0.506514 15.6785 0.506514 14.4878 1.0996L2.28269 8.21663C1.09195 8.80972 0.496582 9.99589 0.496582 11.1821V25.1196C0.496582 26.3057 1.09195 27.4919 2.28269 28.2333L14.339 35.202C15.3809 35.7951 16.7204 35.7951 17.9112 35.202L26.0975 30.4573L31.7535 27.1954L39.9399 22.4507C40.9818 21.8576 42.3214 21.8576 43.5121 22.4507L49.9124 26.1575C50.9543 26.7506 51.6985 27.9367 51.6985 29.2712V36.6847C51.6985 37.8709 51.1031 39.0571 49.9124 39.7984L43.661 43.5052C42.6191 44.0983 41.2795 44.0983 40.0887 43.5052L33.6885 39.7984C32.6466 39.2054 31.9024 38.0192 31.9024 36.6847V31.9401L26.2464 35.202V40.095C26.2464 41.2812 26.8417 42.4673 28.0325 43.2087L40.0887 50.1774C41.1306 50.7705 42.4702 50.7705 43.661 50.1774L55.7172 43.2087C56.7591 42.6156 57.5033 41.4294 57.5033 40.095V26.0092C57.5033 24.823 56.908 23.6369 55.7172 22.8955L43.661 15.9267Z" fill="#8247E5"/>
</svg>
