<svg width="24" height="24" viewBox="0 0 24 24" fill="none" xmlns="http://www.w3.org/2000/svg">
<path d="M5 9C5 5.134 8.134 2 12 2C15.866 2 19 5.134 19 9" stroke="#8247E5" stroke-width="1.5" stroke-linecap="round" stroke-linejoin="round"/>
<path d="M8 9C8 6.791 9.791 5 12 5C14.209 5 16 6.791 16 9" stroke="#8247E5" stroke-width="1.5" stroke-linecap="round" stroke-linejoin="round"/>
<path fill-rule="evenodd" clip-rule="evenodd" d="M13.5539 13V9.5C13.5539 8.672 12.8819 8 12.0539 8V8C11.2259 8 10.5539 8.672 10.5539 9.5V12V16L9.65294 15.099C9.04594 14.492 8.06194 14.492 7.45494 15.099V15.099C6.93094 15.623 6.84994 16.444 7.26094 17.06L9.95994 21.109C10.3309 21.666 10.9559 22 11.6249 22H16.9129C17.9219 22 18.7719 21.249 18.8979 20.248L19.4399 15.911C19.5729 14.844 18.8389 13.862 17.7779 13.689L13.5539 13Z" stroke="#8247E5" stroke-width="1.5" stroke-linecap="round" stroke-linejoin="round"/>
</svg>
