<svg width="63" height="67" viewBox="0 0 63 67" fill="none" xmlns="http://www.w3.org/2000/svg">
<path d="M44.1885 13.5498C43.3223 13.0567 42.2087 13.0567 41.2187 13.5498L34.2892 17.6175L29.5871 20.2061L22.7813 24.2739C21.9151 24.767 20.8014 24.767 19.8115 24.2739L14.4906 21.069C13.6245 20.5759 13.0058 19.5898 13.0058 18.4804V12.3171C13.0058 11.331 13.5007 10.3448 14.4906 9.7285L19.8115 6.64684C20.6777 6.15378 21.7914 6.15378 22.7813 6.64684L28.1022 9.85176C28.9684 10.3448 29.5871 11.331 29.5871 12.4404V16.5081L34.2892 13.7963V9.60523C34.2892 8.6191 33.7943 7.63297 32.8043 7.01664L22.905 1.22313C22.0389 0.730066 20.9252 0.730066 19.9353 1.22313L9.78848 7.13991C8.79855 7.63297 8.30359 8.6191 8.30359 9.60523V21.1923C8.30359 22.1784 8.79855 23.1645 9.78848 23.7808L19.8115 29.5744C20.6777 30.0674 21.7914 30.0674 22.7813 29.5744L29.5871 25.6298L34.2892 22.918L41.095 18.9735C41.9612 18.4804 43.0748 18.4804 44.0648 18.9735L49.3856 22.0551C50.2518 22.5482 50.8705 23.5343 50.8705 24.6437V30.807C50.8705 31.7931 50.3756 32.7793 49.3856 33.3956L44.1885 36.4773C43.3223 36.9703 42.2087 36.9703 41.2187 36.4773L35.8979 33.3956C35.0317 32.9025 34.413 31.9164 34.413 30.807V26.8625L29.7108 29.5744V33.6421C29.7108 34.6283 30.2058 35.6144 31.1957 36.2307L41.2187 42.0242C42.0849 42.5173 43.1986 42.5173 44.1885 42.0242L54.2115 36.2307C55.0777 35.7377 55.6964 34.7515 55.6964 33.6421V21.9319C55.6964 20.9457 55.2015 19.9596 54.2115 19.3433L44.1885 13.5498Z" fill="white"/>
<path d="M3.366 63.394H0.916L4.43 58.312L1.126 53.594H3.576L5.746 56.814L7.902 53.594H10.366L7.062 58.312L10.576 63.394H8.112L5.746 59.824L3.366 63.394ZM11.3703 54.686C12.3129 54.014 13.4049 53.678 14.6463 53.678C15.6636 53.678 16.4943 53.916 17.1383 54.392C17.7916 54.868 18.1183 55.568 18.1183 56.492C18.1183 57.2107 17.8849 57.8267 17.4183 58.34C16.9609 58.844 16.3356 59.3294 15.5423 59.796C14.6089 60.3467 14.0349 60.72 13.8203 60.916C13.5683 61.1587 13.4376 61.3874 13.4283 61.602L18.1883 61.588V63.394H11.0483V62.456C11.0483 61.9427 11.1229 61.4807 11.2723 61.07C11.4309 60.6594 11.6829 60.2907 12.0283 59.964C12.3829 59.6374 12.6769 59.3947 12.9103 59.236C13.1436 59.068 13.4983 58.844 13.9743 58.564C14.0023 58.5454 14.0256 58.5314 14.0443 58.522C14.0629 58.5127 14.0863 58.4987 14.1143 58.48C14.1423 58.4614 14.1656 58.4474 14.1843 58.438C14.2403 58.4007 14.3569 58.3354 14.5343 58.242C14.7209 58.1394 14.8423 58.0694 14.8983 58.032C14.9543 57.9947 15.0523 57.934 15.1923 57.85C15.3323 57.7567 15.4303 57.6867 15.4863 57.64C15.5423 57.584 15.6123 57.5094 15.6963 57.416C15.7896 57.3227 15.8549 57.2387 15.8923 57.164C15.9296 57.0894 15.9623 57.0007 15.9903 56.898C16.0183 56.7954 16.0323 56.688 16.0323 56.576C16.0323 56.2307 15.8923 55.9694 15.6123 55.792C15.3323 55.6054 14.9449 55.512 14.4503 55.512C13.3863 55.512 12.3596 55.89 11.3703 56.646V54.686ZM28.5301 53.594H30.4761V63.394H28.3761V57.36L25.7861 61.294H24.5681L21.9781 57.346V63.394H19.8781V53.594H21.8241L25.1841 58.69L28.5301 53.594ZM33.7413 63.394H31.5713L35.5753 53.594H37.8433L41.8333 63.394H39.6633L38.9493 61.56H34.4693L33.7413 63.394ZM36.4853 56.31L35.1273 59.824H38.2913L36.9193 56.31C36.826 56.0487 36.756 55.792 36.7093 55.54C36.6533 55.8294 36.5786 56.086 36.4853 56.31ZM40.8988 53.594H49.0048V55.484H45.9948V63.394H43.9088V55.484H40.8988V53.594ZM50.2434 53.594H52.3434V63.394H50.2434V53.594ZM53.8946 58.606C53.8946 57.7474 54.044 56.9774 54.3426 56.296C54.6506 55.6054 55.052 55.0547 55.5466 54.644C56.0506 54.2334 56.6106 53.9254 57.2266 53.72C57.8426 53.5054 58.4866 53.398 59.1586 53.398C60.1853 53.398 61.1186 53.608 61.9586 54.028V56.03C61.296 55.5167 60.4793 55.26 59.5086 55.26C58.5566 55.26 57.74 55.5447 57.0586 56.114C56.3866 56.674 56.0506 57.5047 56.0506 58.606C56.0506 59.1287 56.1486 59.5954 56.3446 60.006C56.5406 60.4074 56.802 60.7294 57.1286 60.972C57.4646 61.2147 57.8333 61.4014 58.2346 61.532C58.6453 61.6534 59.07 61.714 59.5086 61.714C60.5913 61.714 61.4313 61.4434 62.0286 60.902V62.96C61.1606 63.38 60.2133 63.59 59.1866 63.59C58.5146 63.59 57.8706 63.4874 57.2546 63.282C56.6386 63.0767 56.074 62.778 55.5606 62.386C55.0566 61.994 54.6506 61.4714 54.3426 60.818C54.044 60.1647 53.8946 59.4274 53.8946 58.606Z" fill="white"/>
</svg>
