<svg width="31" height="31" viewBox="0 0 31 31" fill="none" xmlns="http://www.w3.org/2000/svg">
<circle cx="15.0117" cy="15.2048" r="15" fill="#8247E5"/>
<path d="M19.77 12.0528C19.4318 11.8603 18.9971 11.8603 18.6106 12.0528L15.9054 13.6408L14.0697 14.6514L11.4128 16.2394C11.0746 16.4319 10.6398 16.4319 10.2534 16.2394L8.17613 14.9883C7.83798 14.7958 7.59644 14.4108 7.59644 13.9777V11.5716C7.59644 11.1866 7.78967 10.8016 8.17613 10.561L10.2534 9.35794C10.5915 9.16545 11.0263 9.16545 11.4128 9.35794L13.49 10.6091C13.8281 10.8016 14.0697 11.1866 14.0697 11.6197V13.2077L15.9054 12.149V10.5129C15.9054 10.1279 15.7121 9.74292 15.3257 9.50231L11.4611 7.24056C11.1229 7.04807 10.6881 7.04807 10.3017 7.24056L6.34044 9.55043C5.95397 9.74292 5.76074 10.1279 5.76074 10.5129V15.0364C5.76074 15.4214 5.95397 15.8063 6.34044 16.047L10.2534 18.3087C10.5915 18.5012 11.0263 18.5012 11.4128 18.3087L14.0697 16.7688L15.9054 15.7101L18.5623 14.1702C18.9005 13.9777 19.3352 13.9777 19.7217 14.1702L21.7989 15.3732C22.1371 15.5657 22.3786 15.9507 22.3786 16.3838V18.7899C22.3786 19.1749 22.1854 19.5599 21.7989 19.8005L19.77 21.0036C19.4318 21.1961 18.9971 21.1961 18.6106 21.0036L16.5334 19.8005C16.1952 19.608 15.9537 19.223 15.9537 18.7899V17.25L14.118 18.3087V19.8967C14.118 20.2817 14.3112 20.6667 14.6977 20.9073L18.6106 23.1691C18.9488 23.3616 19.3835 23.3616 19.77 23.1691L23.6829 20.9073C24.0211 20.7148 24.2626 20.3299 24.2626 19.8967V15.3251C24.2626 14.9401 24.0694 14.5552 23.6829 14.3146L19.77 12.0528Z" fill="white"/>
</svg>
